/* XPM */
static char const *blue_E_xpm[] = {
/* width height ncolors chars_per_pixel */
"32 32 107 2",
/* colors */
"   c #94A7D0",
" . c #E9EDF5",
" X c #8298C8",
" o c #F6F8FB",
" O c #D7DEED",
" + c #3559A7",
" @ c #7D94C6",
" # c #F1F4F9",
" $ c #607CBA",
" % c #D2DAEB",
" & c #4162AC",
" * c #6B85BE",
" = c #97AAD2",
" - c #DFE5F1",
" ; c #96A8D1",
" : c #95A8D0",
" > c #A2B3D6",
" , c #859BCA",
" < c #3B5EA9",
" 1 c #F8F9FC",
" 2 c #6681BC",
" 3 c #D9DFEE",
" 4 c #738CC2",
" 5 c #E6EAF4",
" 6 c #5472B4",
" 7 c #365AA7",
" 8 c #F3F5FA",
" 9 c #A9B8D9",
" 0 c #4365AD",
" q c #8BA0CC",
" w c #6E88C0",
" e c #97A9D1",
" r c #7991C4",
" t c #EEF1F8",
" y c #869CCA",
" u c #CFD7EA",
" i c #CED7E9",
" p c #B1BFDD",
" a c #6882BD",
" s c #9FB0D5",
" d c #395DA9",
" f c #CAD3E8",
" g c #385BA8",
" h c #F4F6FA",
" j c #627EBA",
" k c #D6DEED",
" l c #6F89C0",
" z c #9AACD3",
" x c #3357A6",
" c c #7B92C5",
" v c #EFF2F8",
" b c #4062AC",
" n c #3E60AA",
" m c #4B6BB0",
" M c #F7F9FC",
" N c #AEBCDC",
" B c #647FBB",
" V c #D8DFEE",
" C c #E5EAF4",
" Z c #3458A6",
" A c #F0F3F8",
" S c #5F7BB9",
" D c #A7B6D8",
" F c #D3DBEC",
" G c #4163AC",
" H c #899ECB",
" J c #FDFEFE",
" K c #B4C1DE",
" L c #2F54A4",
" P c #ECEFF7",
" I c #EBEFF6",
" U c #CED7EA",
" Y c #3C5FAA",
" T c #849AC9",
" R c #6782BD",
" E c #AFBDDC",
" W c #728BC1",
" Q c #5573B5",
" ! c #E5E9F3",
" ~ c #C7D1E6",
" ^ c #F3F6FA",
" / c #F2F4F9",
" ( c #607CB9",
" ) c #4364AD",
" _ c #4264AC",
" ` c #B7C4E0",
" ' c white",
" ] c #506FB3",
" [ c #4F6FB2",
" { c #4E6DB1",
" } c #7A92C5",
" | c #EDF0F7",
".  c #3D60AA",
".. c #3C5EA9",
".X c #FAFBFD",
".o c #4A6BB0",
".O c #4969AF",
".+ c #395CA9",
".@ c #8197C8",
".# c #8EA2CE",
".$ c #D6DDED",
".% c #4465AD",
".& c #E3E8F3",
".* c #3256A5",
".= c #A6B6D8",
".- c #3F61AB",
".; c #FBFCFD",
/* pixels */
" ' ' ' ' ' ' ' ' ' ' ' ' ' ' ' ' ' ' ' ' ' ' ' ' ' ' ' ' ' ' ' '",
" ' ^ f f f f f f f f f f f f f f f f f f f f f f f O ' ' ' ' ' '",
" ' % L L L L L L L L L L L L L L L L L L L L L L L 7 I ' ' ' ' '",
" ' % L L L L L L L L L L L L L L L L L L L L L L L L.# ' ' ' ' '",
" ' % L L L L L L L L L L L L L L L L L L L L L L L L d A ' ' ' '",
" ' M u E ( L L L L L L L L < l q e ;.@ 6 L L L L L L L e ' ' ' '",
" ' ' ' '.X.O L L L L L L b v ' ' ' ' ' ' - X.* L L L L.  h ' ' '",
" ' ' ' ' ' r L L L L L L a ' ' ' ' ' ' ' ' '.$ [ L L L L s ' ' '",
" ' ' ' ' ' , L L L L L L w ' ' ' ' ' @ 4 4 u ' 8 2 L L L _ 1 ' '",
" ' ' ' ' ' y L L L L L L l ' ' ' ' ' 7 L L ` ' ' 1 B L L L D ' '",
" ' ' ' ' ' y L L L L L L l ' ' ' ' | L L L ` ' ' ' / { L ) p ' '",
" ' ' ' ' ' y L L L L L L l ' ' ' ' E L L L ` ' ' ' ' V > M ' ' '",
" ' ' ' ' ' y L L L L L L R !.& 3 N n L L L ` ' ' ' ' ' ' ' ' ' '",
" ' ' ' ' ' y L L L L L L L L L L L L L L L ` ' ' ' ' ' ' ' ' ' '",
" ' ' ' ' ' y L L L L L L L L L L L L L L L ` ' ' ' ' ' ' ' ' ' '",
" ' ' ' ' ' y L L L L L L L L L L L L L L L ` ' ' ' ' ' ' ' ' ' '",
" ' ' ' ' ' y L L L L L L ) l * ] L L L L L ` ' ' ' ' ' ' ' ' ' '",
" ' ' ' ' ' y L L L L L L l ' ' ' ~ Z L L L ` ' ' ' ' ' ' ' ' ' '",
" ' ' ' ' ' y L L L L L L l ' ' ' ' , L L L ` ' ' ' ' ' ' 1 ' ' '",
" ' ' ' ' ' y L L L L L L l ' ' ' ' U L L L ` ' ' ' ' ' 9 & z # '",
" ' ' ' ' ' y L L L L L L l ' ' ' '.X x L L ` ' ' ' ' F + L L S '",
" ' ' ' ' ' y L L L L L L l ' ' ' ' ' F i i t ' ' ' ! 0 L L L K '",
" ' ' ' ' ' y L L L L L L l ' ' ' ' ' ' ' ' ' ' ' C m L L L.O.; '",
" ' ' ' ' ' T L L L L L L w ' ' ' ' ' ' ' ' ' ' %.% L L L L.= ' '",
" ' ' ' ' ' W L L L L L L 2 ' ' ' ' ' ' ' ' o : x L L L L.- o ' '",
" ' ' ' ' ... L L L L L L d k ' ' ' ' J V   G L L L L L L = ' ' '",
" ' P z } Y L L L L L L L L L.o $ j Q.+ L L L L L L L L g v ' ' '",
" ' % L L L L L L L L L L L L L L L L L L L L L L L L L H ' ' ' '",
" ' % L L L L L L L L L L L L L L L L L L L L L L L L x 5 ' ' ' '",
" ' % L L L L L L L L L L L L L L L L L L L L L L L L c ' ' ' ' '",
" ' ' ' ' ' ' ' ' ' ' ' ' ' ' ' ' ' ' ' ' ' ' ' ' ' ' ' ' ' ' ' '",
" ' ' ' ' ' ' ' ' ' ' ' ' ' ' ' ' ' ' ' ' ' ' ' ' ' ' ' ' ' ' ' '"
};
