/* XPM */
static char const * clear_xpm[] = {
"48 48 5 1",
" 	c None",
".	c #5B5B5B",
"+	c #404040",
"@	c #C0C0C0",
"#	c #FFFFFF",
"                                                ",
"                                                ",
"                                                ",
"                                                ",
"                                                ",
"                                                ",
"      .++++++++++++++++++++++++++++++++++.      ",
"      +@@@@@@@@@@@@@@@@@@@@@@@@@@@@@@@@@@+      ",
"      +@################################@+      ",
"      +@################################@+      ",
"      +@################################@+      ",
"      +@################################@+      ",
"      +@################################@+      ",
"      +@################################@+      ",
"      +@################################@+      ",
"      +@################################@+      ",
"      +@################################@+      ",
"      +@################################@+      ",
"      +@################################@+      ",
"      +@################################@+      ",
"      +@################################@+      ",
"      +@################################@+      ",
"      +@################################@+      ",
"      +@################################@+      ",
"      +@################################@+      ",
"      +@################################@+      ",
"      +@################################@+      ",
"      +@################################@+      ",
"      +@################################@+      ",
"      +@################################@+      ",
"      +@################################@+      ",
"      +@################################@+      ",
"      +@################################@+      ",
"      +@################################@+      ",
"      +@################################@+      ",
"      +@################################@+      ",
"      +@################################@+      ",
"      +@################################@+      ",
"      +@################################@+      ",
"      +@################################@+      ",
"      +@@@@@@@@@@@@@@@@@@@@@@@@@@@@@@@@@@+      ",
"      .++++++++++++++++++++++++++++++++++.      ",
"                                                ",
"                                                ",
"                                                ",
"                                                ",
"                                                ",
"                                                "};
