/* XPM */
static char const *commit_xpm[]={
"48 48 4 1",
". c None",
"# c #000000",
"a c #00c000",
"b c #ffffff",
"...................########.....................",
"...................#aaaaaa#.....................",
"...................#aaaaaa#.....................",
"...................#aaaaaa#.....................",
"...................#aaaaaa#.....................",
"...................#aaaaaa#.....................",
"...............#####aaaaaa#####.................",
".............##bbbb#aaaaaa#bbbb##...............",
"...........##bbbbbb#aaaaaa#bbbbbb##.............",
"...........#bbbbbbb#aaaaaa#bbbbbbb#.............",
"...........#bbbbbbb#aaaaaa#bbbbbbb#.............",
"...........##bbbbbb#aaaaaa#bbbbbb##.............",
"...........#b##bbbb#aaaaaa#bbbb##b#.............",
"...........#bbb##bb#aaaaaa#bb##bbb#.............",
"...........#bbbbb###aaaaaa###bbbbb#.............",
"...........#bbbbbbb#aaaaaa#bbbbbbb#.............",
"...........#bbbbbbb#aaaaaa#bbbbbbb#.............",
"...........#bbbbbbb#aaaaaa#bbbbbbb#.............",
"...........#bbbbbbb#aaaaaa#bbbbbbb#.............",
"...........#bbbbbbb#aaaaaa#bbbbbbb#.............",
"...........#bbbbbbb#aaaaaa#bbbbbbb#.............",
"...........#bbbbbbb#aaaaaa#bbbbbbb#.............",
"...........#bbbbbbb#aaaaaa#bbbbbbb#.............",
"...........#bbbbbbb#aaaaaa#bbbbbbb#.............",
"...........#bbbbbbb#aaaaaa#bbbbbbb#.............",
"...........#bbb#####aaaaaa#####bbb#.............",
"...........#bbb#aaaaaaaaaaaaaa#bbb#.............",
"...........#bbb#aaaaaaaaaaaaaa#bbb#.............",
"...........#bbbb#aaaaaaaaaaaa#bbbb#.............",
"...........#bbbbb#aaaaaaaaaa#bbbbb#.............",
"...........#bbbbbb#aaaaaaaa#bbbbbb#.............",
"...........#bbbbbbb#aaaaaa#bbbbbbb#.............",
"...........#bbbbbbbb#aaaa#bbbbbbbb#.............",
"...........#bbbbbbbbb#aa#bbbbbbbbb#.............",
"...........#bbbbbbbbbb##bbbbbbbbbb#.............",
"...........#bbbbbbbbbbbbbbbbbbbbbb#.............",
"...........#bbbbbbbbbbbbbbbbbbbbbb#.............",
"...........#bbbbbbbbbbbbbbbbbbbbbb#.............",
"...........#bbbbbbbbbbbbbbbbbbbbbb#.............",
"...........#bbbbbbbbbbbbbbbbbbbbbb#.............",
"...........#bbbbbbbbbbbbbbbbbbbbbb#.............",
"...........#bbbbbbbbbbbbbbbbbbbbbb#.............",
"...........#bbbbbbbbbbbbbbbbbbbbbb#.............",
"............##bbbbbbbbbbbbbbbbbb##..............",
"..............##bbbbbbbbbbbbbb##................",
"................##bbbbbbbbbb##..................",
"..................##########....................",
"................................................"};
