/* XPM */
static char const *connect_xpm[]={
"48 48 6 1",
". c None",
"# c #000000",
"b c #0000ff",
"d c #ff0000",
"c c #ffff00",
"a c #ffffff",
"................................................",
"................................................",
"................................................",
"................................................",
"................................................",
"................................................",
"...............################.................",
".............##aaaaaaaaaaaaaaaa##...............",
"...........##aaaaaaaaaaaaaaaaaaaa##.............",
"...........#aaaaaaaaaaaaaaaaaaaaaa#.............",
"...........#aaaaaaaaaaaaaaaaaaaaaa#.............",
"...........##aaaaaaaaaaaaaaaaaaaa##.............",
"...........#a##aaaaaaaaaaaaaaaa##a#.............",
"...........#aaa##aaaaaaaaaaaa##aaa#.............",
"...........#aaaaa############aaaaa#.............",
"...........#aaaaaaaaaaaaaaaaaaaaaa#.............",
"...........#aaaaaaaaaaaaabbbaaaaaa#.............",
"...........#aaaaaaaabbaabccbaabbaa#.............",
"...........#aaaaaaabccbabccbabccba#.............",
"...........#aaaaaaabcdcbbccbbcdcba#.............",
"...........#aaaaaaaabcccbccbcccbaa#.............",
"...........#aaaaaaaaabcdccccdcbaaa#.............",
"...........#aaaaaaabbbbbcddcbbbbba#.............",
"...........#aaaaaabcccccddddcccccb#.............",
"...........#aaaaaabcccccddddcccccb#.............",
"...........#aaaaaaabbbbbcddcbbbbba#.............",
"...........#aaaaaaaaabcdccccdcbaaa#.............",
"...........#aaaaaaaabcccbccbcccbaa#.............",
"...........#aaaaaaabcdcbbccbbcdcba#.............",
"...........#aaaaaaabccbabccbabccba#.............",
"...........#aaaaaaaabbaabccbaabbaa#.............",
"...........#aaaaaaaaaaaaabbaaaaaaa#.............",
"...........#aaaaaaaaaaaaaaaaaaaaaa#.............",
"...........#aaaaaaaaaaaaaaaaaaaaaa#.............",
"...........#aaaaaaaaaaaaaaaaaaaaaa#.............",
"...........#aaaaaaaaaaaaaaaaaaaaaa#.............",
"...........#aaaaaaaaaaaaaaaaaaaaaa#.............",
"...........#aaaaaaaaaaaaaaaaaaaaaa#.............",
"...........#aaaaaaaaaaaaaaaaaaaaaa#.............",
"...........#aaaaaaaaaaaaaaaaaaaaaa#.............",
"...........#aaaaaaaaaaaaaaaaaaaaaa#.............",
"...........#aaaaaaaaaaaaaaaaaaaaaa#.............",
"...........#aaaaaaaaaaaaaaaaaaaaaa#.............",
"............##aaaaaaaaaaaaaaaaaa##..............",
"..............##aaaaaaaaaaaaaa##................",
"................##aaaaaaaaaa##..................",
"..................##########....................",
"................................................"};
