/* XPM */
static char const * copy_xpm[] = {
"48 48 5 1",
" 	c None",
".	c #000000",
"+	c #FFFFFF",
"@	c #A09D9D",
"#	c #5F11EF",
"                                                ",
"                                                ",
"                                                ",
"                                                ",
"                                                ",
"                                                ",
"                                                ",
"                                                ",
"        ...............                         ",
"        .+++++++++++++..                        ",
"        .+++++++++++++.+.                       ",
"        .++............++.    ....              ",
"        .+++@@@@@@@@@@.....  ...... .           ",
"        .+++++++++++++++++. ... .....           ",
"        .+++++++++++++++++.      ....           ",
"        .+++++++++++++++++.     .....           ",
"        .++............+++.                     ",
"        .+++@@@@@@@@@@@@++.                     ",
"        .++++++++++++###############            ",
"        .++++++++++++#+++++++++++++##           ",
"        .++++++++++++#+++++++++++++#+#          ",
"        .++..........#++############++#         ",
"        .+++@@@@@@@@@#+++@@@@@@@@@@#####        ",
"        .++++++++++++#+++++++++++++++++#        ",
"        .++++++++++++#+++++++++++++++++#        ",
"        .++++++++++++#+++++++++++++++++#        ",
"        .++..........#++############+++#        ",
"        .+++@@@@@@@@@#+++@@@@@@@@@@@@++#        ",
"        .++++++++++++#+++++++++++++++++#        ",
"        .............#+++++++++++++++++#        ",
"                     #+++++++++++++++++#        ",
"                     #++############+++#        ",
"                     #+++@@@@@@@@@@@@++#        ",
"                     #+++++++++++++++++#        ",
"                     #+++++++++++++++++#        ",
"                     #+++++++++++++++++#        ",
"                     #++############+++#        ",
"                     #+++@@@@@@@@@@@@++#        ",
"                     #+++++++++++++++++#        ",
"                     ###################        ",
"                                                ",
"                                                ",
"                                                ",
"                                                ",
"                                                ",
"                                                ",
"                                                ",
"                                                "};
