/* XPM */
static char const * cut_xpm[] = {
"48 48 5 1",
" 	c None",
".	c #000000",
"+	c #848394",
"@	c #4D4C9E",
"#	c #000084",
"                                                ",
"                                                ",
"                                                ",
"                                                ",
"                                                ",
"                 ..                             ",
"                +..+       +..                  ",
"                ....+      ...+                 ",
"                ....+     .....                 ",
"                .....     ....+                 ",
"                 ....+    ....                  ",
"                 +...+   ....+                  ",
"                 +....   ....                   ",
"                  ....  .....                   ",
"                  ....+ ....+                   ",
"                   .... ....                    ",
"                   +... ...+                    ",
"                   +.......                     ",
"                     .....                      ",
"                     +...+                      ",
"                      ...                       ",
"                      ...                       ",
"                      ....                      ",
"                     ......                     ",
"                     ...@..#@@                  ",
"                    #..@ #@####@                ",
"                 @@##@## ###@###@               ",
"                 @##@@@# @#@  @##@              ",
"                @##@@ @# @#@   @#@              ",
"               @##    @# @#@   @##              ",
"               @#@    @# @#@    ##@             ",
"               @#@    @# @#@    ##@             ",
"              @##@    @# @#@    ##@             ",
"              @##@    @# @#@    ##@             ",
"              @##@    @# @#@    ##@             ",
"              @##@    @# @#@    ##@             ",
"              @##@   @## @#@    ##@             ",
"              @@#@@  @## @#@   @#@              ",
"               @##@@ @#@ @##   ##@              ",
"                @##@ @#@  @## ##@@              ",
"                 ##@@@#@  @####@@               ",
"                 @#####@   @##@@                ",
"                  @@@@@    @@@@                 ",
"                                                ",
"                                                ",
"                                                ",
"                                                ",
"                                                "};
