/* XPM */
static char const *flash_xpm[]={
"48 48 3 1",
". c None",
"# c #000000",
"a c #ffff00",
"................................................",
"................................................",
"....................##################..........",
"....................#aaaaaaaaaaaaaaaa#..........",
"....................#aaaaaaaaaaaaaaa#...........",
"...................#aaaaaaaaaaaaaaa#............",
"...................#aaaaaaaaaaaaaa#.............",
"..................#aaaaaaaaaaaaaa#..............",
"..................#aaaaaaaaaaaa##...............",
".................#aaaaaaaaaaaa#.................",
".................#aaaaaaaaaaa#..................",
"................#aaaaaaaaaaa#...................",
"...............#aaaaaaaaaa#######...............",
"...............#aaaaaaaaaaaaaaaa#...............",
"..............#aaaaaaaaaaaaaaaa#................",
"..............#aaaaaaaaaaaaaaa#.................",
".............#aaaaaaaaaaaaaaa#..................",
".............#aaaaaaaaaaaaaaa#..................",
"............#aaaaaaaaaaaaaaa#...................",
"...........#aaaaaaaaaaaaaaa#....................",
"...........#########aaaaaaa#....................",
"...................#aaaaaa#.....................",
"..................#aaaaaa#......................",
"..................#aaaaaa#......................",
".................#aaaaaa#######.................",
".................#aaaaaaaaaaaa#.................",
"................#aaaaaaaaaaaaa#.................",
"................#aaaaaaaaaaaa#..................",
"...............#aaaaaaaaaaaa#...................",
"...............#aaaaaaaaaaa#....................",
"..............#aaaaaaaaaaaa#....................",
"..............#aaaaaaaaaaa#.....................",
".............#aaaaaaaaaaa#......................",
".............######aaaaaa#......................",
"..................#aaaaa#.......................",
"..................#aaaa#........................",
"..................#aaaa#........................",
".................#aaaa#.........................",
".................#aaa#..........................",
".................#aaa#..........................",
".................#aa#...........................",
"................#aa#............................",
"................#aa#............................",
"................#a#.............................",
"...............#aa#.............................",
"...............#a#..............................",
"...............##...............................",
"................................................"};
