/* XPM */
static char const *leftarrow_xpm[]={
"48 48 3 1",
". c None",
"# c #000000",
"a c #00c000",
"................................................",
"................................................",
"................................................",
"................................................",
"................................................",
"................................................",
"................................................",
"................................................",
"................................................",
"................................................",
"................................................",
"................##..............................",
"...............#a#..............................",
"..............#aa#..............................",
".............#aaa#..............................",
"............#aaaa#..............................",
"...........#aaaaa#..............................",
"..........#aaaaaa############################...",
".........#aaaaaaaaaaaaaaaaaaaaaaaaaaaaaaaaaa#...",
"........#aaaaaaaaaaaaaaaaaaaaaaaaaaaaaaaaaaa#...",
".......#aaaaaaaaaaaaaaaaaaaaaaaaaaaaaaaaaaaa#...",
"......#aaaaaaaaaaaaaaaaaaaaaaaaaaaaaaaaaaaaa#...",
".....#aaaaaaaaaaaaaaaaaaaaaaaaaaaaaaaaaaaaaa#...",
"....#aaaaaaaaaaaaaaaaaaaaaaaaaaaaaaaaaaaaaaa#...",
"...#aaaaaaaaaaaaaaaaaaaaaaaaaaaaaaaaaaaaaaaa#...",
"....#aaaaaaaaaaaaaaaaaaaaaaaaaaaaaaaaaaaaaaa#...",
".....#aaaaaaaaaaaaaaaaaaaaaaaaaaaaaaaaaaaaaa#...",
"......#aaaaaaaaaaaaaaaaaaaaaaaaaaaaaaaaaaaaa#...",
".......#aaaaaaaaaaaaaaaaaaaaaaaaaaaaaaaaaaaa#...",
"........#aaaaaaaaaaaaaaaaaaaaaaaaaaaaaaaaaaa#...",
".........#aaaaaaaaaaaaaaaaaaaaaaaaaaaaaaaaaa#...",
"..........#aaaaaa############################...",
"...........#aaaaa#..............................",
"............#aaaa#..............................",
".............#aaa#..............................",
"..............#aa#..............................",
"...............#a#..............................",
"................##..............................",
"................................................",
"................................................",
"................................................",
"................................................",
"................................................",
"................................................",
"................................................",
"................................................",
"................................................",
"................................................"};
