/* XPM */
static char const * new_xpm[] = {
"48 48 5 1",
" 	c None",
".	c #FFE063",
"+	c #795AFD",
"@	c #FFFFFF",
"#	c #9B88ED",
"                                                ",
"                                                ",
"                                                ",
"                                                ",
"             .     .                            ",
"             .                                  ",
"        .  ++.+++..++++++++++++++++++           ",
"        .. +@@@@@.@@@@@@@@@@@@@@@@@@+           ",
"          .+@@.@.@@@@@@@@@@@@@@@@@@@+           ",
"           .@@..@@@@@@@@@@@@@@@@@@@@+           ",
"           +.@.@@@@@@@@@@@@@@@@@@@@@+           ",
"           +@@@.@@@@@@@@@@@@@@@@@@@@+           ",
"           ...@++++++++++++++++++@@@+           ",
"         ...@@@@#.################@@+           ",
"        .  +@@.@@@..@@@@@@@@@@@@@@@@+           ",
"       ..  +@@..@@@.@@@@@@@@@@@@@@@@+           ",
"       .   +@@@.@@@@@@@@@@@@@@@@@@@@+           ",
"           +@@@@.@@@@@@@@@@@@@@@@@@@+           ",
"           +@@@+..+++++++++++++++@@@+           ",
"           +@@@@#.################@@+           ",
"           +@@@@@@@@@@@@@@@@@@@@@@@@+           ",
"           +@@@@@@@@@@@@@@@@@@@@@@@@+           ",
"           +@@@@@@@@@@@@@@@@@@@@@@@@+           ",
"           +@@@@@@@@@@@@@@@@@@@@@@@@+           ",
"           +@@@++++++++++++++++++@@@+           ",
"           +@@@@##################@@+           ",
"           +@@@@@@@@@@@@@@@@@@@@@@@@+           ",
"           +@@@@@@@@@@@@@@@@@@@@@@@@+           ",
"           +@@@@@@@@@@@@@@@@@@@@@@@@+           ",
"           +@@@@@@@@@@@@@@@@@@@@@@@@+           ",
"           +@@@++++++++++++++++++@@@+           ",
"           +@@@@############+++++++++           ",
"           +@@@@@@@@@@@@@@@@++++++++            ",
"           +@@@@@@@@@@@@@@@@+++++++             ",
"           +@@@@@@@@@@@@@@@@++++++              ",
"           +@@@@@@@@@@@@@@@@+++++               ",
"           +@@@@@@@@@@@@@@@@++++                ",
"           +@@@@@@@@@@@@@@@@+++                 ",
"           +@@@@@@@@@@@@@@@@++                  ",
"           ++++++++++++++++++                   ",
"                                                ",
"                                                ",
"                                                ",
"                                                ",
"                                                ",
"                                                ",
"                                                ",
"                                                "};
