/* XPM */
static char const * open_xpm[] = {
"48 48 6 1",
" 	c None",
".	c #5E6F6E",
"+	c #000000",
"@	c #896E29",
"#	c #FFE063",
"$	c #C6A31A",
"                                                ",
"                                                ",
"                                                ",
"                                                ",
"                                                ",
"                                                ",
"                                                ",
"                                                ",
"                                                ",
"                                                ",
"                                                ",
"                                                ",
"                              .+++.             ",
"                              ++++++            ",
"                             +++ .+++ .+        ",
"                                   +++++        ",
"    @@@@@@@@@@@@@@@@@@@@@@@@@@@@    ++++        ",
"    @##########################@   .++++        ",
"    @##########################@   +++++        ",
"    @##########################@                ",
"    @##########################@                ",
"    @##########################@                ",
"    @############@@@@@@@@@@@@@@@@@@@@@@@@@@@    ",
"    @###########@$$$$$$$$$$$$$$$$$$$$$$$$$$@    ",
"    @##########@$$$$$$$$$$$$$$$$$$$$$$$$$$@     ",
"    @#########@$$$$$$$$$$$$$$$$$$$$$$$$$$@      ",
"    @########@$$$$$$$$$$$$$$$$$$$$$$$$$$@       ",
"    @#######@$$$$$$$$$$$$$$$$$$$$$$$$$$@        ",
"    @######@$$$$$$$$$$$$$$$$$$$$$$$$$$@         ",
"    @#####@$$$$$$$$$$$$$$$$$$$$$$$$$$@          ",
"    @####@$$$$$$$$$$$$$$$$$$$$$$$$$$@           ",
"    @###@$$$$$$$$$$$$$$$$$$$$$$$$$$@            ",
"    @##@$$$$$$$$$$$$$$$$$$$$$$$$$$@             ",
"    @#@$$$$$$$$$$$$$$$$$$$$$$$$$$@              ",
"    @@$$$$$$$$$$$$$$$$$$$$$$$$$$@               ",
"    @$$$$$$$$$$$$$$$$$$$$$$$$$$@                ",
"    @@@@@@@@@@@@@@@@@@@@@@@@@@@                 ",
"                                                ",
"                                                ",
"                                                ",
"                                                ",
"                                                ",
"                                                ",
"                                                ",
"                                                ",
"                                                ",
"                                                ",
"                                                "};
