/* XPM */
static char const * paste_xpm[] = {
"48 48 6 1",
" 	c None",
".	c #000000",
"+	c #E7F24C",
"@	c #978138",
"#	c #6C6CF1",
"$	c #FFFFFF",
"                                                ",
"                                                ",
"                                                ",
"                                                ",
"                                                ",
"                                                ",
"                ................                ",
"               .++++++++++++++++.               ",
"              .++++++++++++++++++.              ",
"       .......++................++.......       ",
"      .@@@@@@@.++++++++++++++++++.@@@@@@@.      ",
"      .@@@@@@@@..................@@@@@@@@.      ",
"      .@@@@@@@@@@@@@@@@@@@@@@@@@@@@@@@@@@.      ",
"      .@@@@@@@@@@@@@@@@@@@@@@@@@@@@@@@@@@.      ",
"      .@@@@@@@@@@@@@@@@@@@@@@@@@@@@@@@@@@.      ",
"      .@@@@@@@@@@@@@@@@@@@@@@@@@@@@@@@@@@.      ",
"      .@@@@@@@@@@@@@@@@@@@@@@@@@@@@@@@@@@.      ",
"      .@@@@@@@@@@@@@@@@@@@@@@@@@@@@@.@@@@.      ",
"      .@@@@@@@@@@@@@@@@@@@@@@@@@@@@@.@@@@.      ",
"      .@@@@@@@@@@@@@@@@@@@@@@@@@@@@@.@@@@.      ",
"      .@@@@@@@@@@@@@@@@@@@@@@@@@@@@@.@@@@.      ",
"      .@@@@@@@@@@@@@@@@@@@@@@@@@@.......@.      ",
"      .@@@@@@@@@@@@@@@@@@@@@@@@@@.......@.      ",
"      .@@@@@@@@@@@@@@@@@@#########.....@@.      ",
"      .@@@@@@@@@@@@@@@@@@#$$$$$$$$$...#@@.      ",
"      .@@@@@@@@@@@@@@@@@@#$$$$$$$$$$.$#@@.      ",
"      .@@@@@@@@@@@@@@@@@@#$$$$$$$$$$$$#@@.      ",
"      .@@@@@@@@@@@@@@@@@@#$$########$$#@@.      ",
"      .@@@@@@@@@@@@@@@@@@#$$$$$$$$$$$$#@@.      ",
"      .@@@@@@@@@@@@@@@@@@#$$$$$$$$$$$$#@@.      ",
"      .@@@@@@@@@@@@@@@@@@#$$$$$$$$$$$$#@@.      ",
"      .@@@@@@@@@@@@@@@@@@#$$########$$#@@.      ",
"      .@@@@@@@@@@@@@@@@@@#$$$$$$$$$$$$#@@.      ",
"       .@@@@@@@@@@@@@@@@@#$$$$$$$$$$$$#@.       ",
"        .................#$$$$$$$$$$$$#.        ",
"                         #$$########$$#         ",
"                         #$$$$$$$$$$$$#         ",
"                         #$$$$$$$$$$$$#         ",
"                         #$$$$$$$######         ",
"                         #$$##########          ",
"                         #$$$$$$$####           ",
"                         #$$$$$$$###            ",
"                         #$$$$$$$##             ",
"                         #########              ",
"                                                ",
"                                                ",
"                                                ",
"                                                "};
