/* XPM */
static char const *rightarrow_xpm[]={
"48 48 3 1",
". c None",
"# c #000000",
"a c #00c000",
"................................................",
"................................................",
"................................................",
"................................................",
"................................................",
"................................................",
"................................................",
"................................................",
"................................................",
"................................................",
"................................................",
"..............................##................",
"..............................#a#...............",
"..............................#aa#..............",
"..............................#aaa#.............",
"..............................#aaaa#............",
"..............................#aaaaa#...........",
"....###########################aaaaaa#..........",
"....#aaaaaaaaaaaaaaaaaaaaaaaaaaaaaaaaa#.........",
"....#aaaaaaaaaaaaaaaaaaaaaaaaaaaaaaaaaa#........",
"....#aaaaaaaaaaaaaaaaaaaaaaaaaaaaaaaaaaa#.......",
"....#aaaaaaaaaaaaaaaaaaaaaaaaaaaaaaaaaaaa#......",
"....#aaaaaaaaaaaaaaaaaaaaaaaaaaaaaaaaaaaaa#.....",
"....#aaaaaaaaaaaaaaaaaaaaaaaaaaaaaaaaaaaaaa#....",
"....#aaaaaaaaaaaaaaaaaaaaaaaaaaaaaaaaaaaaaaa#...",
"....#aaaaaaaaaaaaaaaaaaaaaaaaaaaaaaaaaaaaaa#....",
"....#aaaaaaaaaaaaaaaaaaaaaaaaaaaaaaaaaaaaa#.....",
"....#aaaaaaaaaaaaaaaaaaaaaaaaaaaaaaaaaaaa#......",
"....#aaaaaaaaaaaaaaaaaaaaaaaaaaaaaaaaaaa#.......",
"....#aaaaaaaaaaaaaaaaaaaaaaaaaaaaaaaaaa#........",
"....#aaaaaaaaaaaaaaaaaaaaaaaaaaaaaaaaa#.........",
"....###########################aaaaaa#..........",
"..............................#aaaaa#...........",
"..............................#aaaa#............",
"..............................#aaa#.............",
"..............................#aa#..............",
"..............................#a#...............",
"..............................##................",
"................................................",
"................................................",
"................................................",
"................................................",
"................................................",
"................................................",
"................................................",
"................................................",
"................................................",
"................................................"};
