/* XPM */
static char const * save_xpm[] = {
"48 48 5 1",
" 	c None",
".	c #000000",
"+	c #6D4EF4",
"@	c #FFFFFF",
"#	c #ECC4C0",
"                                                ",
"                                                ",
"                                                ",
"                                                ",
"                                                ",
"       ..................................       ",
"       .++++........................++++.       ",
"       .++++.@@@@@@@@@@@@@@@@@@@@@@.++++.       ",
"       .+..+.@@@@@@@@@@@@@@@@@@@@@@.++++.       ",
"       .+..+.@@@@@@@@@@@@@@@@@@@@@@.++++.       ",
"       .++++.@@@@@@@@@@@@@@@@@@@@@@.++++.       ",
"       .++++.@@@@@@@@@@@@@@@@@@@@@@.++++.       ",
"       .++++.@@@@@@@@@@@@@@@@@@@@@@.++++.       ",
"       .++++.@@@@@@@@@@@@@@@@@@@@@@.++++.       ",
"       .++++.@@@@@@@@@@@@@@@@@@@@@@.++++.       ",
"       .++++.@@@@@@@@@@@@@@@@@@@@@@.++++.       ",
"       .++++.@@@@@@@@@@@@@@@@@@@@@@.++++.       ",
"       .++++.@@@@@@@@@@@@@@@@@@@@@@.++++.       ",
"       .++++.@@@@@@@@@@@@@@@@@@@@@@.++++.       ",
"       .++++.@@@@@@@@@@@@@@@@@@@@@@.++++.       ",
"       .++++.@@@@@@@@@@@@@@@@@@@@@@.++++.       ",
"       .++++.@@@@@@@@@@@@@@@@@@@@@@.++++.       ",
"       .++++.@@@@@@@@@@@@@@@@@@@@@@.++++.       ",
"       .++++.@@@@@@@@@@@@@@@@@@@@@@.++++.       ",
"       .++++........................++++.       ",
"       .++++++++++++++++++++++++++++++++.       ",
"       .++++++++++++++++++++++++++++++++.       ",
"       .++++++++++++++++++++++++++++++++.       ",
"       .+++++++..................+++++++.       ",
"       .+++++++.################.+++++++.       ",
"       .+++++++.################.+++++++.       ",
"       .+++++++.###...##########.+++++++.       ",
"       .+++++++.###...##########.+++++++.       ",
"       .+++++++.###...##########.+++++++.       ",
"       .+++++++.###...##########.+++++++.       ",
"       .+++++++.###...##########.+++++++.       ",
"        .++++++.###...##########.+++++++.       ",
"         .+++++.###...##########.+++++++.       ",
"          ......################.........       ",
"                                                ",
"                                                ",
"                                                ",
"                                                ",
"                                                ",
"                                                ",
"                                                ",
"                                                ",
"                                                "};
