/* XPM */
static char const * stop_xpm[] = {
"48 48 3 1",
" 	c None",
".	c #FF0000",
"+	c #FFFFFF",
"                                                ",
"                                                ",
"                                                ",
"                                                ",
"                                                ",
"                                                ",
"                    .........                   ",
"                 ...............                ",
"               ...................              ",
"              .....................             ",
"             .......................            ",
"            .........................           ",
"           ...........................          ",
"          .............................         ",
"         ...............................        ",
"         ...............................        ",
"        .................................       ",
"        .................................       ",
"        .................................       ",
"       ...................................      ",
"       +++++++++++++++++++++++++++++++++++      ",
"       +++++++++++++++++++++++++++++++++++      ",
"       +++++++++++++++++++++++++++++++++++      ",
"       +++++++++++++++++++++++++++++++++++      ",
"       +++++++++++++++++++++++++++++++++++      ",
"       +++++++++++++++++++++++++++++++++++      ",
"       +++++++++++++++++++++++++++++++++++      ",
"       +++++++++++++++++++++++++++++++++++      ",
"        .................................       ",
"        .................................       ",
"        .................................       ",
"         ...............................        ",
"         ...............................        ",
"          .............................         ",
"           ...........................          ",
"            .........................           ",
"             .......................            ",
"              .....................             ",
"               ...................              ",
"                 ...............                ",
"                    .........                   ",
"                                                ",
"                                                ",
"                                                ",
"                                                ",
"                                                ",
"                                                ",
"                                                "};
