/* XPM */
static char const * together_xpm[] = {
"48 48 58 1",
" 	c None",
".	c #1E11BF",
"+	c #1D11BF",
"@	c #1E12BF",
"#	c #1D12BF",
"$	c #2E1B1B",
"%	c #D21F1F",
"&	c #241AC1",
"*	c #2218C1",
"=	c #2318C1",
"-	c #2A21C4",
";	c #2A22C4",
">	c #2920C3",
",	c #2820C3",
"'	c #3029C6",
")	c #302AC6",
"!	c #2F28C5",
"~	c #2E28C5",
"{	c #5257D2",
"]	c #5961D5",
"^	c #5A60D5",
"/	c #5960D6",
"(	c #585FD6",
"_	c #595FD5",
":	c #6069D7",
"<	c #5F68D8",
"[	c #5E67D8",
"}	c #5F68D7",
"|	c #5F67D7",
"1	c #5E67D7",
"2	c #010006",
"3	c #030210",
"4	c #05031B",
"5	c #060426",
"6	c #08062F",
"7	c #0A063A",
"8	c #0C0845",
"9	c #0E084F",
"0	c #0E094F",
"a	c #0D094F",
"b	c #0C0745",
"c	c #09052F",
"d	c #070426",
"e	c #05031A",
"f	c #000006",
"g	c #010105",
"h	c #020210",
"i	c #0A073A",
"j	c #0C0846",
"k	c #0A073B",
"l	c #060425",
"m	c #010106",
"n	c #010005",
"o	c #04031B",
"p	c #0D084F",
"q	c #0A063B",
"r	c #09062F",
"s	c #030110",
"                  .+@.+..#.++..                 ",
"                  ##...#.@@.@#.                 ",
"                  .@$$$$$$$$$#.                 ",
"                  ..$%%%%%%%$##                 ",
"                  ..$%%%%%%%$+@                 ",
"                  ..$%%%%%%%$+.                 ",
"                  +#$%%%%%%%$.@                 ",
"                  @.$%%%%%%%$..                 ",
"                  @@$%%%%%%%$#+                 ",
"                  &&$%%%%%%%$*=                 ",
"                  -;$%%%%%%%$>,                 ",
"                  ')$%%%%%%%$!~                 ",
"         $$$$$$$$$$$$%%%%%%%$$$$$$$$$$$         ",
"          $$$%%%%%%%%%%%%%%%%%%%%%%$$$          ",
"            $$$%%%%%%%%%%%%%%%%%%$$$            ",
"              $$$%%%%%%%%%%%%%%$$$              ",
"                $$$%%%%%%%%%%$$$                ",
"                  $$$%%%%%%$$${                 ",
"                  ]^$$$%%$$$/(_                 ",
"                  :<<<$$$$[}|11                 ",
"         2345678900aa00a0aa00000b7cde3f         ",
"         ghed6i8090009000a909000jk6l43m         ",
"         nholc7j000000p000a00900bqrlesg         ",
"                                                ",
"         2345678900aa00a0aa00000b7cde3f         ",
"         ghed6i8090009000a909000jk6l43m         ",
"         nholc7j000000p000a00900bqrlesg         ",
"                  :<<<$$$$[}|11                 ",
"                  ]^$$$%%$$$/(_                 ",
"                  $$$%%%%%%$$${                 ",
"                $$$%%%%%%%%%%$$$                ",
"              $$$%%%%%%%%%%%%%%$$$              ",
"            $$$%%%%%%%%%%%%%%%%%%$$$            ",
"          $$$%%%%%%%%%%%%%%%%%%%%%%$$$          ",
"         $$$$$$$$$$$$%%%%%%%$$$$$$$$$$$         ",
"                  ')$%%%%%%%$!~                 ",
"                  -;$%%%%%%%$>,                 ",
"                  &&$%%%%%%%$*=                 ",
"                  @@$%%%%%%%$#+                 ",
"                  @.$%%%%%%%$..                 ",
"                  +#$%%%%%%%$.@                 ",
"                  ..$%%%%%%%$+.                 ",
"                  ..$%%%%%%%$+@                 ",
"                  ..$%%%%%%%$##                 ",
"                  .@$$$$$$$$$#.                 ",
"                  ##...#.@@.@#.                 ",
"                  .+@.+..#.++..                 ",
"                                                "};
